# xmcd CD database file
#
# Track frame offsets:
#	150
#	16764
#	29508
#	46144
#	59341
#	71248
#	85941
#	98457
#	113085
#	133095
#	146321
#	164530
#	182969
#	195537
#	218072
#
# Disc length: 3077 seconds
#
# Revision: 0
# Processed by: cddbd v1.5.2PL0 Copyright (c) Steve Scherf et al.
# Submitted via: CDex 1.51
#
DISCID=ce0c030f
DTITLE=Michael Reno Harrell - Drive
DYEAR=2005
DGENRE=Country
TTITLE0=The Wind
TTITLE1=Redemption
TTITLE2=Me and You
TTITLE3=Fishing in the morning
TTITLE4=Missing you
TTITLE5=This old truck
TTITLE6=Sally Street
TTITLE7=I miss daddy
TTITLE8=Drive
TTITLE9=Slide show
TTITLE10=Be Still
TTITLE11=Rambling kind
TTITLE12=The sound of goodbye
TTITLE13=The ballad of Til Huffman
TTITLE14=Graham Street
EXTD=YEAR: 2005
EXTT0=
EXTT1=
EXTT2=
EXTT3=
EXTT4=
EXTT5=
EXTT6=
EXTT7=
EXTT8=
EXTT9=
EXTT10=
EXTT11=
EXTT12=
EXTT13=
EXTT14=
PLAYORDER=
